<svg width="36" height="36" viewBox="0 0 36 36" fill="none" xmlns="http://www.w3.org/2000/svg">
<circle cx="18" cy="18" r="18" fill="#E8FFF6"/>
<path d="M18 24.0001H24.75M11.25 24H12.5059C12.8728 24 13.0563 24 13.2289 23.9586C13.382 23.9219 13.5283 23.8613 13.6625 23.779C13.8139 23.6862 13.9436 23.5565 14.203 23.2971L23.6251 13.875C24.2464 13.2537 24.2464 12.2464 23.6251 11.625C23.0037 11.0037 21.9964 11.0037 21.375 11.625L11.953 21.0471C11.6935 21.3065 11.5638 21.4362 11.4711 21.5876C11.3888 21.7218 11.3282 21.8681 11.2915 22.0212C11.25 22.1938 11.25 22.3773 11.25 22.7442V24Z" stroke="#0B8376" stroke-width="1.4" stroke-linecap="round" stroke-linejoin="round"/>
</svg>
